<svg width="432" height="163" viewBox="0 0 432 163" fill="none" xmlns="http://www.w3.org/2000/svg">
<g filter="url(#filter0_d)">
<path d="M81.3905 6H349.969C369.964 6 389.14 13.9429 403.279 28.0814C417.417 42.2198 425.36 61.3957 425.36 81.3905C425.36 101.385 417.417 120.561 403.279 134.7C389.14 148.838 369.964 156.781 349.969 156.781H81.3905C61.3957 156.781 42.2198 148.838 28.0814 134.7C13.9429 120.561 6 101.385 6 81.3905C6 61.3957 13.9429 42.2198 28.0814 28.0814C42.2198 13.9429 61.3957 6 81.3905 6V6Z" fill="#A16BE1"/>
</g>
<path d="M91.0315 103.302H89.0005V67.5771H91.0315V103.302Z" fill="white"/>
<path d="M101.266 92.7811H99.2365V67.5811H101.266V92.7811Z" fill="white"/>
<path d="M125.628 80.3332C125.628 84.6126 124.594 87.8219 122.527 89.9612C120.461 92.1006 117.316 93.1706 113.094 93.1712C112.56 93.1712 112.017 93.1539 111.464 93.1192C110.91 93.0846 110.38 93.0372 109.873 92.9772C109.367 92.9142 108.913 92.8502 108.51 92.7772C108.182 92.7253 107.857 92.6569 107.535 92.5722L107.905 90.7272C108.74 90.9212 109.586 91.0647 110.438 91.1572C111.313 91.2623 112.193 91.3171 113.073 91.3212C114.723 91.3648 116.37 91.1506 117.953 90.6862C119.169 90.3063 120.268 89.6212 121.143 88.6962C122.027 87.7162 122.663 86.5386 122.998 85.2622C123.424 83.6465 123.624 81.9798 123.594 80.3092C123.616 78.6855 123.43 77.0655 123.039 75.4892C122.723 74.1997 122.121 72.998 121.276 71.9732C120.445 71.0052 119.384 70.2612 118.19 69.8092C116.674 69.2725 115.071 69.0219 113.462 69.0702C113.202 69.0702 112.789 69.0839 112.222 69.1112C111.656 69.1386 111.068 69.1796 110.458 69.2342C109.85 69.2889 109.259 69.3576 108.685 69.4402C108.11 69.5229 107.549 69.6186 107.003 69.7272L107.474 67.9422C107.91 67.8217 108.351 67.7258 108.797 67.6552C109.297 67.5732 109.83 67.4982 110.397 67.4302C110.964 67.3612 111.497 67.3112 111.997 67.2752C112.497 67.2392 112.986 67.2252 113.464 67.2252C115.22 67.1969 116.97 67.4566 118.642 67.9942C120.088 68.4659 121.397 69.2824 122.456 70.3732C123.542 71.5368 124.349 72.932 124.815 74.4532C125.393 76.3584 125.667 78.3427 125.628 80.3332V80.3332Z" fill="white"/>
<path d="M153.928 92.7809H151.898V77.4809C151.898 74.6095 151.041 72.4902 149.326 71.1229C147.61 69.7555 145.166 69.0719 141.993 69.0719C140.363 69.0675 138.733 69.1567 137.112 69.3389V83.9219C137.112 84.7559 137.099 85.5625 137.071 86.3418C137.046 87.0764 136.98 87.8089 136.871 88.5358C136.785 89.1628 136.62 89.7763 136.379 90.3619C136.162 90.88 135.853 91.3544 135.466 91.7618C135.024 92.2042 134.493 92.5471 133.907 92.7679C133.27 93.03 132.588 93.1658 131.898 93.1679C131.419 93.1679 131.023 93.1569 130.708 93.1379C130.393 93.1189 130.032 93.0788 129.621 93.0248L129.888 91.1789C130.191 91.232 130.495 91.2697 130.801 91.2918C131.095 91.3118 131.358 91.3219 131.59 91.3219C132.184 91.3396 132.773 91.209 133.303 90.9419C133.801 90.6629 134.196 90.2318 134.431 89.7119C134.74 89.0335 134.921 88.3039 134.964 87.5599C135.04 86.6932 135.077 85.6505 135.076 84.4319V69.6079C134.01 69.7579 132.964 69.9422 131.939 70.1608L132.185 68.1928C133.73 67.8922 135.33 67.6562 136.985 67.4849C138.613 67.3159 140.249 67.2305 141.885 67.2289C143.532 67.2091 145.174 67.4109 146.766 67.8288C148.142 68.1891 149.432 68.8201 150.56 69.6849C151.63 70.5225 152.481 71.6058 153.042 72.8429C153.66 74.2648 153.961 75.8046 153.923 77.3548L153.928 92.7809Z" fill="white"/>
<path d="M182.62 83.737C182.636 84.9991 182.557 86.2607 182.383 87.511C182.233 88.4892 181.903 89.4312 181.409 90.289C180.88 91.1796 180.108 91.9015 179.185 92.371C178.029 92.9411 176.75 93.216 175.461 93.171C174.581 93.186 173.7 93.1312 172.827 93.007C172.163 92.8942 171.508 92.7297 170.868 92.515L171.544 90.669C172.123 90.8639 172.712 91.0249 173.308 91.151C174.026 91.2808 174.754 91.3391 175.482 91.325C176.411 91.3648 177.334 91.1712 178.168 90.7619C178.825 90.4132 179.364 89.8777 179.717 89.2229C180.083 88.5226 180.321 87.7622 180.417 86.978C180.539 86.0463 180.597 85.1075 180.591 84.168V78.6109C180.59 77.88 180.539 77.15 180.438 76.4259C180.336 75.6826 180.161 74.9511 179.915 74.242C179.67 73.5331 179.335 72.8581 178.92 72.233C178.503 71.6036 177.984 71.0488 177.383 70.5919C176.729 70.1035 175.997 69.7292 175.219 69.485C174.283 69.196 173.307 69.0573 172.327 69.074C171.549 69.0771 170.773 69.1565 170.009 69.311C169.237 69.4612 168.489 69.7162 167.785 70.069C167.089 70.4205 166.437 70.8547 165.844 71.362C165.248 71.8663 164.748 72.4736 164.367 73.155C164.201 73.4482 164.057 73.7537 163.936 74.069C163.814 74.386 163.751 74.723 163.751 75.063V92.781H161.721V71.515C161.723 70.9068 161.675 70.2994 161.578 69.699C161.464 69.0677 161.242 68.4609 160.922 67.905L162.767 67.085C163.072 67.6664 163.293 68.2878 163.423 68.931C163.59 69.7875 163.673 70.6583 163.669 71.531C164.647 70.1955 165.926 69.11 167.402 68.363C168.869 67.6713 170.461 67.2864 172.082 67.2317C173.702 67.177 175.317 67.4537 176.826 68.045C178.05 68.5626 179.14 69.3514 180.014 70.352C180.905 71.3969 181.569 72.6157 181.962 73.931C182.419 75.4551 182.641 77.04 182.62 78.631V83.737Z" fill="white"/>
<path d="M201.978 81.482H199.948V67.582H201.978V81.482Z" fill="white"/>
<path d="M225.644 74.181C225.644 74.5637 225.624 74.9737 225.582 75.411C225.541 75.849 225.507 76.197 225.482 76.457L224.928 82.097C224.845 82.9104 224.715 83.7184 224.539 84.517C224.366 85.3094 224.123 86.0848 223.811 86.834C223.506 87.5672 223.128 88.2681 222.683 88.926C222.24 89.5806 221.705 90.1677 221.094 90.669C220.426 91.2163 219.661 91.6304 218.837 91.889C217.972 92.171 217.084 92.3768 216.182 92.504C215.35 92.6273 214.511 92.7031 213.669 92.731C212.904 92.75 212.2 92.768 211.557 92.781L212.234 90.936C212.74 90.936 213.27 90.9253 213.824 90.904C215.044 90.8553 216.252 90.6592 217.424 90.32C218 90.159 218.551 89.9237 219.065 89.62C219.645 89.3016 220.16 88.8773 220.582 88.369C221.027 87.8394 221.4 87.2533 221.69 86.626C221.999 85.9643 222.242 85.2744 222.418 84.566C222.603 83.8342 222.737 83.0904 222.818 82.34L223.433 76.557C223.447 76.4203 223.475 76.1603 223.516 75.777C223.56 75.3274 223.581 74.8758 223.577 74.424C223.598 73.6838 223.465 72.9475 223.188 72.261C222.936 71.6765 222.554 71.1572 222.07 70.743C221.548 70.3055 220.945 69.9746 220.295 69.769C219.547 69.5282 218.765 69.4104 217.978 69.42H207.72V58H209.75V67.577H217.866C218.949 67.5643 220.028 67.713 221.066 68.018C221.965 68.2815 222.8 68.7282 223.517 69.33C224.185 69.8988 224.72 70.6063 225.085 71.403C225.472 72.2772 225.663 73.2253 225.644 74.181Z" fill="white"/>
<path d="M261.902 92.7808H259.466C258.821 91.8348 258.221 90.9618 257.667 90.1618C257.112 89.3618 256.578 88.5861 256.066 87.8348C255.553 87.0828 255.043 86.3378 254.537 85.5998C254.031 84.8618 253.491 84.0858 252.917 83.2718C252.343 82.4585 251.725 81.5868 251.062 80.6568C250.4 79.7268 249.535 78.4965 248.467 76.9658C247.819 77.452 247.234 78.017 246.724 78.6478C245.876 79.7103 245.353 80.9951 245.217 82.3478C245.139 83.1072 245.101 83.8703 245.104 84.6338V92.7748H243.074V84.4078C243.065 83.5023 243.144 82.5979 243.31 81.7078C243.462 80.9385 243.717 80.1934 244.069 79.4928C244.428 78.7872 244.864 78.1238 245.37 77.5148C245.992 76.7892 246.694 76.1354 247.461 75.5658L242.539 68.5728L244.118 67.4248C244.858 68.4495 245.491 69.3245 246.018 70.0498C246.546 70.7751 247.096 71.5338 247.668 72.3258C248.244 73.1185 248.797 73.8878 249.329 74.6338C249.861 75.3798 250.361 76.0798 250.829 76.7338C251.909 78.2671 253.14 80.0035 254.521 81.9428C255.878 81.3014 257.018 80.2756 257.798 78.9925C258.578 77.7094 258.965 76.2255 258.909 74.7248V67.5668H260.939V74.1088C260.951 75.1338 260.837 76.1563 260.602 77.1538C260.391 78.0265 260.052 78.8632 259.596 79.6368C259.14 80.3967 258.557 81.073 257.873 81.6368C257.116 82.2631 256.318 82.8383 255.484 83.3588L261.902 92.7808Z" fill="white"/>
<path d="M285.445 73.607C285.457 74.782 285.361 75.9556 285.159 77.113C284.989 78.0813 284.634 79.0077 284.112 79.841C283.583 80.6618 282.953 81.4127 282.236 82.076C281.491 82.7737 280.692 83.4117 279.846 83.984L284.788 90.936L284.297 92.781H266.454L266.967 90.936H282.367L266.367 68.236L268.275 67.436L278.795 82.468C279.445 82.0479 280.062 81.5799 280.641 81.068C281.267 80.5163 281.807 79.8734 282.241 79.161C282.691 78.4344 283.004 77.6315 283.164 76.792C283.339 75.8247 283.421 74.8429 283.41 73.86V67.584H285.441L285.445 73.607Z" fill="white"/>
<path d="M313.521 83.737C313.538 84.9991 313.459 86.2607 313.285 87.511C313.135 88.4892 312.804 89.431 312.31 90.289C311.781 91.18 311.01 91.9021 310.085 92.371C308.93 92.9412 307.651 93.2161 306.363 93.171C305.482 93.186 304.601 93.1312 303.728 93.007C303.064 92.8942 302.409 92.7297 301.769 92.515L302.446 90.669C303.024 90.8639 303.613 91.0249 304.209 91.151C304.927 91.2808 305.655 91.3391 306.383 91.325C307.312 91.3648 308.236 91.1712 309.07 90.7619C309.727 90.4126 310.266 89.8772 310.62 89.2229C310.985 88.5224 311.222 87.7621 311.319 86.978C311.441 86.0463 311.499 85.1075 311.493 84.168V78.6109C311.492 77.8799 311.441 77.1499 311.339 76.4259C311.237 75.6825 311.062 74.951 310.816 74.242C310.571 73.5329 310.238 72.8579 309.823 72.233C309.405 71.6038 308.885 71.0491 308.284 70.5919C307.631 70.1037 306.899 69.7295 306.12 69.485C305.184 69.1959 304.208 69.0572 303.228 69.074C302.45 69.0771 301.674 69.1565 300.911 69.311C300.139 69.4611 299.39 69.7162 298.686 70.069C297.99 70.4206 297.338 70.8547 296.745 71.362C296.15 71.8663 295.649 72.4736 295.268 73.155C295.102 73.4482 294.958 73.7537 294.837 74.069C294.715 74.3861 294.653 74.7231 294.654 75.063V92.781H292.622V71.515C292.624 70.9067 292.577 70.2994 292.479 69.699C292.365 69.0679 292.143 68.4611 291.823 67.905L293.668 67.085C293.973 67.6665 294.194 68.2879 294.326 68.931C294.491 69.7877 294.574 70.6584 294.571 71.531C295.548 70.1955 296.827 69.1099 298.303 68.363C299.77 67.6713 301.362 67.2864 302.983 67.2317C304.603 67.177 306.218 67.4537 307.727 68.045C308.951 68.5623 310.041 69.3512 310.915 70.352C311.806 71.3969 312.47 72.6157 312.865 73.931C313.32 75.4552 313.542 77.0401 313.521 78.631V83.737Z" fill="white"/>
<path d="M342.436 92.7809H340.406V77.4809C340.406 74.6095 339.548 72.4902 337.832 71.1229C336.116 69.7555 333.672 69.0719 330.5 69.0719C328.87 69.0675 327.241 69.1566 325.62 69.3389V83.9219C325.62 84.7559 325.607 85.5625 325.579 86.3418C325.554 87.0764 325.488 87.8089 325.379 88.5358C325.293 89.1628 325.128 89.7763 324.887 90.3619C324.67 90.8798 324.361 91.3541 323.974 91.7618C323.532 92.2042 323.001 92.5471 322.415 92.7679C321.778 93.03 321.096 93.1658 320.406 93.1679C319.927 93.1679 319.531 93.1569 319.216 93.1379C318.901 93.1189 318.539 93.0788 318.129 93.0248L318.396 91.1789C318.699 91.232 319.003 91.2697 319.31 91.2918C319.604 91.3118 319.865 91.3219 320.098 91.3219C320.692 91.3396 321.281 91.209 321.811 90.9419C322.309 90.6623 322.704 90.2314 322.939 89.7119C323.248 89.0335 323.429 88.3039 323.472 87.5599C323.548 86.6932 323.585 85.6505 323.584 84.4319V69.6079C322.518 69.7579 321.472 69.9422 320.448 70.1608L320.693 68.1928C322.238 67.8922 323.838 67.6562 325.493 67.4849C327.121 67.316 328.757 67.2305 330.393 67.2289C332.04 67.2091 333.682 67.4109 335.274 67.8288C336.65 68.1891 337.94 68.8201 339.068 69.6849C340.138 70.5225 340.989 71.6058 341.549 72.8429C342.168 74.2648 342.469 75.8046 342.431 77.3548L342.436 92.7809Z" fill="white"/>
<defs>
<filter id="filter0_d" x="0" y="0" width="431.36" height="162.781" filterUnits="userSpaceOnUse" color-interpolation-filters="sRGB">
<feFlood flood-opacity="0" result="BackgroundImageFix"/>
<feColorMatrix in="SourceAlpha" type="matrix" values="0 0 0 0 0 0 0 0 0 0 0 0 0 0 0 0 0 0 127 0" result="hardAlpha"/>
<feOffset/>
<feGaussianBlur stdDeviation="3"/>
<feColorMatrix type="matrix" values="0 0 0 0 0 0 0 0 0 0 0 0 0 0 0 0 0 0 0.388 0"/>
<feBlend mode="normal" in2="BackgroundImageFix" result="effect1_dropShadow"/>
<feBlend mode="normal" in="SourceGraphic" in2="effect1_dropShadow" result="shape"/>
</filter>
</defs>
</svg>
