<svg width="432" height="163" viewBox="0 0 432 163" fill="none" xmlns="http://www.w3.org/2000/svg">
<g filter="url(#filter0_d)">
<path d="M81.3905 6H349.969C369.964 6 389.14 13.9429 403.279 28.0814C417.417 42.2198 425.36 61.3957 425.36 81.3905C425.36 101.385 417.417 120.561 403.279 134.7C389.14 148.838 369.964 156.781 349.969 156.781H81.3905C61.3957 156.781 42.2198 148.838 28.0814 134.7C13.9429 120.561 6 101.385 6 81.3905C6 61.3957 13.9429 42.2198 28.0814 28.0814C42.2198 13.9429 61.3957 6 81.3905 6V6Z" fill="#A16BE1"/>
</g>
<g filter="url(#filter1_d)">
<path d="M111.031 101.216H109.001V65.4912H111.031V101.216Z" fill="white"/>
</g>
<g filter="url(#filter2_d)">
<path d="M121.264 90.6962H119.233V65.4912H121.264V90.6962Z" fill="white"/>
</g>
<g filter="url(#filter3_d)">
<path d="M145.628 78.2478C145.628 82.5265 144.594 85.7358 142.527 87.8758C140.461 90.0158 137.316 91.0858 133.094 91.0858C132.561 91.0858 132.018 91.0685 131.464 91.0338C130.909 90.9998 130.381 90.9518 129.875 90.8908C129.369 90.8298 128.913 90.7638 128.511 90.6908C128.109 90.6178 127.782 90.5538 127.536 90.4858L127.906 88.6398C128.74 88.8342 129.586 88.9782 130.438 89.0708C131.313 89.1754 132.193 89.2302 133.073 89.2348C134.724 89.2787 136.371 89.0641 137.954 88.5989C139.17 88.2186 140.267 87.5339 141.143 86.6098C142.027 85.6288 142.663 84.4512 143 83.1748C143.424 81.559 143.625 79.8923 143.594 78.2218C143.617 76.5984 143.431 74.9787 143.04 73.4028C142.724 72.1127 142.122 70.9106 141.276 69.8858C140.445 68.9179 139.384 68.1739 138.19 67.7218C136.674 67.1861 135.071 66.936 133.464 66.9839C133.204 66.9839 132.79 66.9975 132.222 67.0248C131.655 67.0521 131.067 67.0931 130.458 67.1478C129.85 67.2031 129.259 67.2715 128.685 67.3528C128.11 67.4342 127.549 67.5298 127.003 67.6398L127.474 65.8558C127.91 65.7351 128.352 65.6393 128.798 65.5688C129.296 65.4868 129.83 65.4115 130.398 65.3428C130.967 65.2741 131.5 65.2228 131.998 65.1888C132.498 65.1558 132.985 65.1379 133.464 65.1379C135.221 65.1094 136.97 65.3695 138.643 65.9078C140.089 66.3792 141.398 67.1957 142.458 68.2868C143.542 69.4507 144.348 70.8459 144.815 72.3669C145.393 74.2722 145.668 76.2569 145.628 78.2478V78.2478Z" fill="white"/>
</g>
<g filter="url(#filter4_d)">
<path d="M173.929 90.6957H171.898V75.3957C171.898 72.5251 171.04 70.4061 169.325 69.0387C167.609 67.6714 165.165 66.9877 161.993 66.9877C160.362 66.9836 158.732 67.0724 157.112 67.2537V81.8357C157.112 82.6691 157.098 83.4754 157.071 84.2547C157.046 84.9913 156.979 85.7258 156.871 86.4547C156.784 87.0813 156.619 87.6945 156.379 88.2797C156.162 88.7977 155.853 89.2721 155.467 89.6797C155.025 90.1225 154.493 90.4656 153.908 90.6857C153.27 90.9484 152.587 91.0843 151.898 91.0857C151.42 91.0857 151.023 91.0747 150.709 91.0547C150.395 91.0347 150.032 90.9967 149.622 90.9417L149.889 89.0957C150.203 89.1507 150.508 89.1877 150.801 89.2097C151.094 89.2317 151.358 89.2397 151.591 89.2397C152.184 89.2576 152.772 89.127 153.303 88.8597C153.8 88.58 154.195 88.1487 154.431 87.6287C154.739 86.9503 154.92 86.2208 154.965 85.4767C155.039 84.6101 155.076 83.5674 155.077 82.3487V67.5217C154.01 67.6717 152.964 67.8564 151.939 68.0757L152.185 66.1067C153.729 65.8054 155.329 65.5694 156.985 65.3987C158.612 65.2298 160.248 65.1444 161.885 65.1427C163.531 65.1244 165.173 65.3282 166.765 65.7487C168.14 66.1084 169.43 66.7391 170.559 67.6037C171.628 68.4412 172.479 69.5246 173.041 70.7617C173.659 72.1837 173.96 73.7235 173.923 75.2737L173.929 90.6957Z" fill="white"/>
</g>
<g filter="url(#filter5_d)">
<path d="M202.618 81.652C202.635 82.9138 202.557 84.175 202.383 85.425C202.232 86.4035 201.902 87.3456 201.409 88.204C200.879 89.0943 200.108 89.8162 199.185 90.2859C198.029 90.8561 196.75 91.131 195.461 91.086C194.58 91.1014 193.699 91.0461 192.826 90.921C192.162 90.8082 191.507 90.6437 190.867 90.429L191.544 88.584C192.122 88.7792 192.711 88.9399 193.308 89.065C194.025 89.1953 194.753 89.2539 195.482 89.24C196.41 89.2795 197.334 89.0856 198.169 88.676C198.825 88.3267 199.364 87.7913 199.717 87.137C200.082 86.4362 200.319 85.676 200.417 84.892C200.538 83.9606 200.596 83.0222 200.591 82.083V76.525C200.59 75.794 200.539 75.0639 200.438 74.34C200.335 73.5969 200.16 72.8657 199.914 72.157C199.67 71.4475 199.335 70.772 198.919 70.147C198.503 69.5179 197.983 68.9632 197.383 68.506C196.728 68.0184 195.997 67.6442 195.219 67.399C194.282 67.1108 193.306 66.9724 192.326 66.989C191.548 66.9918 190.772 67.0709 190.009 67.225C189.237 67.3752 188.488 67.6302 187.784 67.983C187.089 68.3349 186.438 68.769 185.846 69.276C185.251 69.7807 184.75 70.3884 184.37 71.07C184.203 71.3631 184.059 71.6683 183.938 71.983C183.816 72.3001 183.754 72.6371 183.755 72.977V90.696H181.724V69.429C181.726 68.821 181.678 68.214 181.581 67.614C181.467 66.9827 181.245 66.3759 180.924 65.82L182.771 65C183.075 65.5812 183.295 66.2023 183.427 66.845C183.592 67.7017 183.674 68.5724 183.672 69.445C184.649 68.1093 185.928 67.0236 187.404 66.277C188.871 65.5847 190.463 65.1993 192.083 65.1445C193.703 65.0896 195.318 65.3665 196.828 65.958C198.052 66.4757 199.142 67.2645 200.018 68.265C200.908 69.3102 201.571 70.529 201.966 71.844C202.421 73.3683 202.643 74.9531 202.621 76.544L202.618 81.652Z" fill="white"/>
</g>
<g filter="url(#filter6_d)">
<path d="M247.94 65.4912C247.858 66.1879 247.742 67.1105 247.592 68.2592C247.482 69.2445 247.332 70.5299 247.141 72.1152C246.951 73.7006 246.704 75.6626 246.402 78.0012C246.174 80.0035 245.699 81.9698 244.987 83.8552C244.426 85.3392 243.548 86.683 242.414 87.7932C241.329 88.8186 240.019 89.5767 238.589 90.0072C236.911 90.4939 235.169 90.7259 233.422 90.6953H224.746L220.993 65.4952H222.982L225.259 81.3882C226.212 81.1933 227.148 80.9258 228.06 80.5882C228.703 80.3372 229.321 80.0248 229.904 79.6552C230.426 79.3212 230.904 78.9249 231.329 78.4752C231.777 77.9833 232.153 77.4313 232.448 76.8352C232.82 76.0715 233.098 75.2657 233.277 74.4352C233.521 73.3333 233.693 72.2166 233.79 71.0922C233.872 70.4502 233.951 69.7972 234.026 69.1332C234.1 68.4692 234.172 67.8645 234.242 67.3192C234.324 66.6905 234.399 66.0822 234.467 65.4942H236.477C236.423 65.9722 236.368 66.4986 236.312 67.0732C236.246 67.5792 236.177 68.1535 236.107 68.7962C236.037 69.4389 235.969 70.1359 235.902 70.8872C235.765 72.4893 235.48 74.0754 235.052 75.6252C234.705 76.8802 234.12 78.0566 233.328 79.0902C232.529 80.0961 231.531 80.927 230.396 81.5312C228.867 82.2998 227.233 82.8389 225.547 83.1312L226.388 88.8522H233.605C234.844 88.859 236.079 88.7248 237.287 88.4522C238.502 88.1772 239.634 87.6186 240.591 86.822C241.548 86.0254 242.303 85.0135 242.794 83.8692C243.457 82.327 243.926 80.7077 244.188 79.0492C244.516 76.6432 244.793 74.5892 245.018 72.8872C245.244 71.1852 245.418 69.7802 245.542 68.6722C245.706 67.3869 245.828 66.3275 245.91 65.4942L247.94 65.4912Z" fill="white"/>
</g>
<g filter="url(#filter7_d)">
<path d="M257.354 90.6962H255.324V65.4912H257.354V90.6962Z" fill="white"/>
</g>
<g filter="url(#filter8_d)">
<path d="M284.712 78.371C284.752 80.2468 284.52 82.1186 284.024 83.928C283.627 85.3316 282.943 86.6376 282.015 87.763C281.042 88.8646 279.808 89.704 278.427 90.204C276.722 90.8251 274.917 91.1242 273.104 91.086C272.516 91.086 271.847 91.0686 271.095 91.034C270.343 90.9993 269.584 90.9516 268.818 90.891C268.054 90.8295 267.294 90.7267 266.542 90.583C265.79 90.4397 265.12 90.3063 264.532 90.183L264.963 88.255C266.125 88.529 267.372 88.7623 268.706 88.9549C270.245 89.1594 271.797 89.2554 273.351 89.242C274.705 89.2656 276.054 89.0576 277.339 88.6269C278.449 88.2448 279.452 87.6014 280.262 86.751C281.108 85.8111 281.724 84.6876 282.062 83.469C282.506 81.8705 282.713 80.2156 282.678 78.557C282.678 74.8237 281.895 71.963 280.329 69.975C278.763 67.987 276.333 66.9923 273.039 66.9909C271.746 66.9832 270.455 67.0584 269.173 67.216C268.29 67.3138 267.415 67.4786 266.558 67.709V77.1009H273.121L272.793 78.9469H264.528V66.417C265.16 66.195 265.803 66.0064 266.456 65.852C267.166 65.682 267.905 65.5453 268.671 65.4419C269.437 65.3386 270.172 65.2636 270.876 65.217C271.579 65.1703 272.252 65.1463 272.895 65.1449C274.597 65.1173 276.29 65.3951 277.895 65.9649C279.311 66.4816 280.583 67.3287 281.607 68.436C282.669 69.6282 283.457 71.039 283.915 72.569C284.475 74.4509 284.744 76.4076 284.712 78.371V78.371Z" fill="white"/>
</g>
<g filter="url(#filter9_d)">
<path d="M293.407 79.3962H291.377V65.4912H293.407V79.3962Z" fill="white"/>
</g>
<g filter="url(#filter10_d)">
<path d="M321.339 90.6958H319.308V75.2908C319.348 73.9045 319.154 72.5214 318.733 71.1998C318.404 70.2041 317.817 69.3129 317.034 68.6158C316.282 67.9676 315.379 67.5204 314.409 67.3158C313.193 67.0766 311.956 66.9667 310.717 66.9878C309.446 66.988 308.176 67.0598 306.912 67.2028C305.646 67.3468 304.556 67.5075 303.643 67.6848V90.6948H301.612V66.1478C302.228 66.0111 302.946 65.8812 303.766 65.7578C304.586 65.6345 305.426 65.5285 306.287 65.4398C307.149 65.3518 308.004 65.2801 308.852 65.2248C309.7 65.1695 310.466 65.1422 311.151 65.1428C312.623 65.1209 314.091 65.3074 315.51 65.6968C316.7 66.0242 317.793 66.6327 318.698 67.4708C319.595 68.3407 320.269 69.4131 320.664 70.5978C321.149 72.0866 321.378 73.6466 321.341 75.2118L321.339 90.6958Z" fill="white"/>
</g>
<defs>
<filter id="filter0_d" x="0" y="0" width="431.36" height="162.781" filterUnits="userSpaceOnUse" color-interpolation-filters="sRGB">
<feFlood flood-opacity="0" result="BackgroundImageFix"/>
<feColorMatrix in="SourceAlpha" type="matrix" values="0 0 0 0 0 0 0 0 0 0 0 0 0 0 0 0 0 0 127 0" result="hardAlpha"/>
<feOffset/>
<feGaussianBlur stdDeviation="3"/>
<feColorMatrix type="matrix" values="0 0 0 0 0 0 0 0 0 0 0 0 0 0 0 0 0 0 0.388 0"/>
<feBlend mode="normal" in2="BackgroundImageFix" result="effect1_dropShadow"/>
<feBlend mode="normal" in="SourceGraphic" in2="effect1_dropShadow" result="shape"/>
</filter>
<filter id="filter1_d" x="105.001" y="61.4912" width="10.03" height="43.725" filterUnits="userSpaceOnUse" color-interpolation-filters="sRGB">
<feFlood flood-opacity="0" result="BackgroundImageFix"/>
<feColorMatrix in="SourceAlpha" type="matrix" values="0 0 0 0 0 0 0 0 0 0 0 0 0 0 0 0 0 0 127 0" result="hardAlpha"/>
<feOffset/>
<feGaussianBlur stdDeviation="2"/>
<feColorMatrix type="matrix" values="0 0 0 0 0 0 0 0 0 0 0 0 0 0 0 0 0 0 0.161 0"/>
<feBlend mode="normal" in2="BackgroundImageFix" result="effect1_dropShadow"/>
<feBlend mode="normal" in="SourceGraphic" in2="effect1_dropShadow" result="shape"/>
</filter>
<filter id="filter2_d" x="115.233" y="61.4912" width="10.031" height="33.205" filterUnits="userSpaceOnUse" color-interpolation-filters="sRGB">
<feFlood flood-opacity="0" result="BackgroundImageFix"/>
<feColorMatrix in="SourceAlpha" type="matrix" values="0 0 0 0 0 0 0 0 0 0 0 0 0 0 0 0 0 0 127 0" result="hardAlpha"/>
<feOffset/>
<feGaussianBlur stdDeviation="2"/>
<feColorMatrix type="matrix" values="0 0 0 0 0 0 0 0 0 0 0 0 0 0 0 0 0 0 0.161 0"/>
<feBlend mode="normal" in2="BackgroundImageFix" result="effect1_dropShadow"/>
<feBlend mode="normal" in="SourceGraphic" in2="effect1_dropShadow" result="shape"/>
</filter>
<filter id="filter3_d" x="123.003" y="61.1357" width="26.6279" height="33.9501" filterUnits="userSpaceOnUse" color-interpolation-filters="sRGB">
<feFlood flood-opacity="0" result="BackgroundImageFix"/>
<feColorMatrix in="SourceAlpha" type="matrix" values="0 0 0 0 0 0 0 0 0 0 0 0 0 0 0 0 0 0 127 0" result="hardAlpha"/>
<feOffset/>
<feGaussianBlur stdDeviation="2"/>
<feColorMatrix type="matrix" values="0 0 0 0 0 0 0 0 0 0 0 0 0 0 0 0 0 0 0.161 0"/>
<feBlend mode="normal" in2="BackgroundImageFix" result="effect1_dropShadow"/>
<feBlend mode="normal" in="SourceGraphic" in2="effect1_dropShadow" result="shape"/>
</filter>
<filter id="filter4_d" x="145.622" y="61.1416" width="32.307" height="33.9441" filterUnits="userSpaceOnUse" color-interpolation-filters="sRGB">
<feFlood flood-opacity="0" result="BackgroundImageFix"/>
<feColorMatrix in="SourceAlpha" type="matrix" values="0 0 0 0 0 0 0 0 0 0 0 0 0 0 0 0 0 0 127 0" result="hardAlpha"/>
<feOffset/>
<feGaussianBlur stdDeviation="2"/>
<feColorMatrix type="matrix" values="0 0 0 0 0 0 0 0 0 0 0 0 0 0 0 0 0 0 0.161 0"/>
<feBlend mode="normal" in2="BackgroundImageFix" result="effect1_dropShadow"/>
<feBlend mode="normal" in="SourceGraphic" in2="effect1_dropShadow" result="shape"/>
</filter>
<filter id="filter5_d" x="176.924" y="61" width="29.6983" height="34.0908" filterUnits="userSpaceOnUse" color-interpolation-filters="sRGB">
<feFlood flood-opacity="0" result="BackgroundImageFix"/>
<feColorMatrix in="SourceAlpha" type="matrix" values="0 0 0 0 0 0 0 0 0 0 0 0 0 0 0 0 0 0 127 0" result="hardAlpha"/>
<feOffset/>
<feGaussianBlur stdDeviation="2"/>
<feColorMatrix type="matrix" values="0 0 0 0 0 0 0 0 0 0 0 0 0 0 0 0 0 0 0.161 0"/>
<feBlend mode="normal" in2="BackgroundImageFix" result="effect1_dropShadow"/>
<feBlend mode="normal" in="SourceGraphic" in2="effect1_dropShadow" result="shape"/>
</filter>
<filter id="filter6_d" x="216.993" y="61.4912" width="34.947" height="33.2067" filterUnits="userSpaceOnUse" color-interpolation-filters="sRGB">
<feFlood flood-opacity="0" result="BackgroundImageFix"/>
<feColorMatrix in="SourceAlpha" type="matrix" values="0 0 0 0 0 0 0 0 0 0 0 0 0 0 0 0 0 0 127 0" result="hardAlpha"/>
<feOffset/>
<feGaussianBlur stdDeviation="2"/>
<feColorMatrix type="matrix" values="0 0 0 0 0 0 0 0 0 0 0 0 0 0 0 0 0 0 0.161 0"/>
<feBlend mode="normal" in2="BackgroundImageFix" result="effect1_dropShadow"/>
<feBlend mode="normal" in="SourceGraphic" in2="effect1_dropShadow" result="shape"/>
</filter>
<filter id="filter7_d" x="251.324" y="61.4912" width="10.03" height="33.205" filterUnits="userSpaceOnUse" color-interpolation-filters="sRGB">
<feFlood flood-opacity="0" result="BackgroundImageFix"/>
<feColorMatrix in="SourceAlpha" type="matrix" values="0 0 0 0 0 0 0 0 0 0 0 0 0 0 0 0 0 0 127 0" result="hardAlpha"/>
<feOffset/>
<feGaussianBlur stdDeviation="2"/>
<feColorMatrix type="matrix" values="0 0 0 0 0 0 0 0 0 0 0 0 0 0 0 0 0 0 0.161 0"/>
<feBlend mode="normal" in2="BackgroundImageFix" result="effect1_dropShadow"/>
<feBlend mode="normal" in="SourceGraphic" in2="effect1_dropShadow" result="shape"/>
</filter>
<filter id="filter8_d" x="260.528" y="61.1431" width="28.1885" height="33.9462" filterUnits="userSpaceOnUse" color-interpolation-filters="sRGB">
<feFlood flood-opacity="0" result="BackgroundImageFix"/>
<feColorMatrix in="SourceAlpha" type="matrix" values="0 0 0 0 0 0 0 0 0 0 0 0 0 0 0 0 0 0 127 0" result="hardAlpha"/>
<feOffset/>
<feGaussianBlur stdDeviation="2"/>
<feColorMatrix type="matrix" values="0 0 0 0 0 0 0 0 0 0 0 0 0 0 0 0 0 0 0.161 0"/>
<feBlend mode="normal" in2="BackgroundImageFix" result="effect1_dropShadow"/>
<feBlend mode="normal" in="SourceGraphic" in2="effect1_dropShadow" result="shape"/>
</filter>
<filter id="filter9_d" x="287.377" y="61.4912" width="10.03" height="21.905" filterUnits="userSpaceOnUse" color-interpolation-filters="sRGB">
<feFlood flood-opacity="0" result="BackgroundImageFix"/>
<feColorMatrix in="SourceAlpha" type="matrix" values="0 0 0 0 0 0 0 0 0 0 0 0 0 0 0 0 0 0 127 0" result="hardAlpha"/>
<feOffset/>
<feGaussianBlur stdDeviation="2"/>
<feColorMatrix type="matrix" values="0 0 0 0 0 0 0 0 0 0 0 0 0 0 0 0 0 0 0.161 0"/>
<feBlend mode="normal" in2="BackgroundImageFix" result="effect1_dropShadow"/>
<feBlend mode="normal" in="SourceGraphic" in2="effect1_dropShadow" result="shape"/>
</filter>
<filter id="filter10_d" x="297.612" y="61.1411" width="27.7337" height="33.5547" filterUnits="userSpaceOnUse" color-interpolation-filters="sRGB">
<feFlood flood-opacity="0" result="BackgroundImageFix"/>
<feColorMatrix in="SourceAlpha" type="matrix" values="0 0 0 0 0 0 0 0 0 0 0 0 0 0 0 0 0 0 127 0" result="hardAlpha"/>
<feOffset/>
<feGaussianBlur stdDeviation="2"/>
<feColorMatrix type="matrix" values="0 0 0 0 0 0 0 0 0 0 0 0 0 0 0 0 0 0 0.161 0"/>
<feBlend mode="normal" in2="BackgroundImageFix" result="effect1_dropShadow"/>
<feBlend mode="normal" in="SourceGraphic" in2="effect1_dropShadow" result="shape"/>
</filter>
</defs>
</svg>
